<?xml version="1.0" encoding="utf-8"?>
<!-- Generator: Adobe Illustrator 19.2.1, SVG Export Plug-In . SVG Version: 6.00 Build 0)  -->
<svg version="1.1" id="Calque_1" xmlns="http://www.w3.org/2000/svg" xmlns:xlink="http://www.w3.org/1999/xlink" x="0px" y="0px"
	 viewBox="0 0 438.9 575.9" style="enable-background:new 0 0 438.9 575.9;" xml:space="preserve">
<style type="text/css">
	.st0{fill:#040404;}
	.st1{fill:#F4D0A1;}
	.st2{fill:#252223;}
	.st3{fill:#40D5FF;}
	.st4{fill:#010101;}
	.st5{fill:#FEFEFE;}
</style>
<g>
	<path class="st0" d="M23.3,299.5c0.9-2.6,2.2-5.1,3.9-7.2c3.9-4.8,9-7.5,14.7-9.5c5.6-2,11.4-2.9,17.4-2.7c0.8,0,1-0.2,1-1
		c-0.4-11.4-1.1-22.8-2.1-34.2c-1.3-16.1-2.8-32.2-3.7-48.4c-0.4-7-0.6-14-0.6-21.1c0-18.7,1.5-37.3,6-55.5c0.3-1-0.1-1.3-0.9-1.6
		c-6.3-2.4-12-5.7-16.5-10.7c-7.9-8.7-10.1-19-6.8-30c4.9-16.3,15.9-26.4,32.7-29.6c8.5-1.6,16.6,0.1,24.3,3.9
		c1.4,0.7,2.8,1.4,4.1,2.2c0.5,0.3,0.8,0.3,1.2-0.1c13.2-11.2,28.4-18.7,44.7-24.1c11.7-3.9,23.7-6.5,35.8-8.5
		c10.8-1.7,21.6-3,32.5-3.8c0.2,0,0.4,0,0.5-0.2c2.6,0,5.3,0,7.9,0c1.4,0.5,2.8,0.2,4.2,0.2c1.7,0,3.4,0,5.1,0
		c7.9,0.3,15.9,0.7,23.8,1.5c19.6,2,38.8,5.9,56.8,14.4c8.2,3.9,15.9,8.7,22.9,14.5c0.7,0.6,1.1,0.6,1.8,0.1
		c6.9-4.4,14.4-7.3,22.7-7.3c12.3,0,22.2,5.1,29.9,14.4c5.7,6.9,8.9,14.8,9.1,23.8c0.3,11.3-4.5,20.3-13.4,27.2
		c-3.3,2.5-7,4.5-10.8,6c-0.9,0.4-1,0.7-0.8,1.7c2.8,11,4.9,22.1,6.4,33.4c1.9,14.5,2.9,29.2,3.4,43.8c0.2,7.2,0.4,14.5,0.5,21.7
		c0.2,11.8,0.1,23.5,0.2,35.3c0.1,9.5,0.2,19,0.6,28.5c0,0.8,0,1.3,1.2,1.4c8.1,0.3,15.7,2.5,22.6,6.9c4.1,2.7,7.4,6.2,9.2,10.8
		c1.4,3.7,0.8,7.2-2.6,9.3c-0.4,0.3-0.5,0.6-0.6,1.1c-0.1,0.7-0.2,1.5-0.4,2.2c-1.5,5.5-5.8,8-11.7,6.9c-5-0.9-9.4-3.2-13.6-6
		c-0.6-0.4-1.2-0.8-1.8-1.1c-0.1-0.1-0.3-0.1-0.5-0.2c0.2,2.7,0.3,5.2,0.5,7.8c0.6,8.4,1,16.9,1.4,25.4c0.4,7.7,0.6,15.3,0.6,23
		c0.1,18.2-0.7,36.3-3.6,54.4c-3.2,19.9-8.7,39-18.2,56.8c-4.8,8.9-10.8,16.9-17.9,24.1c-0.3,0.3-0.6,0.5-0.8,0.7
		c0.4,0.6,0.9,0.8,1.3,1.2c6.7,5,12.6,10.7,16.9,18c2,3.3,3.4,6.8,3.6,10.7c0.2,4.4-1.4,8.1-4.7,10.9c-2,1.7-4.1,3.3-6.3,4.7
		c-4.2,2.5-8.5,2.5-12.7,0.2c-3.7-2-6.6-5.1-9.3-8.2c-2.8-3.2-5.6-6.5-8.5-9.6c-2.3-2.5-4.8-4.8-7.9-6.3c-0.6-0.3-1.1-0.3-1.8,0
		c-13.7,7.2-28.2,12.1-43.2,15.5c-14,3.1-28.2,4.9-42.6,5.6c-11.7,0.6-23.5,0.5-35.2-0.3c-22.5-1.7-44.3-6.1-65.2-14.8
		c-1.7-0.7-3.2,0-4.8,0.3c-5.4,1.1-9.9,4-14.2,7.3c-4.2,3.3-8,6.9-12.2,10c-3,2.2-6,4.3-9.6,5.5c-5.7,2-10.5,0.2-13.7-4.9
		c-0.4-0.6-0.7-0.9-1.4-1c-1.8-0.2-3-1.4-3.9-2.9c-3.7-6.1-3.6-12.2,0-18.2c2.9-4.8,7-8.4,11.4-11.7c3.3-2.5,6.7-4.9,10.1-7.3
		c0.8-0.5,0.7-0.8,0.1-1.4c-8.7-8-15.8-17.3-21.2-27.9c-5-9.7-8.4-19.9-10.8-30.5c-2.9-13.1-4.2-26.3-4.6-39.7
		c-0.5-16.4,0.3-32.8,1.5-49.1c1.1-15.1,2.2-30.1,3.3-45.2c0.1-0.9,0-1.8,0-2.9c-2.3,0.7-4.6,1.6-6.7,3c-3.5,2.4-7.2,4.4-11.3,5.6
		c-2,0.6-4.1,1-6.3,0.7c-4.5-0.6-7.2-3.2-8.1-7.7c0-0.1,0-0.2,0-0.4c-0.1-1.3-0.5-2.3-1.7-3c-1.2-0.8-1.7-2.2-2.3-3.4
		C23.3,301.8,23.3,300.6,23.3,299.5z M378.4,233.9c-0.2,0-0.3,0-0.5,0c0-8.4,0-16.7,0-25.1c0-8.4-0.3-16.9-0.7-25.3
		c-0.6-12.3-1.5-24.6-3.2-36.8c-2-15.1-5.1-30-9.7-44.5c-1.9-5.9-3.7-11.9-6.6-17.5c-12-23.2-29.9-40.2-54-50.5
		c-14.7-6.3-30.2-9.7-46.1-11.6c-12.9-1.6-25.9-2.1-38.9-2.3c-5.6-0.1-11.2,0.5-16.7,1c-13.6,1.3-27,3.3-40.3,6.3
		c-14.3,3.3-28.2,7.9-41.2,14.8C102.1,52.4,87.4,65.9,77,84c-8.3,14.4-13.1,30-16.2,46.2c-2.5,12.9-3.5,25.9-3.8,39
		c-0.2,10.1,0.1,20.1,0.7,30.2c0.9,15.5,2.4,30.9,3.6,46.4c1,11.9,1.7,23.8,2,35.8c0.3,11.8-0.1,23.7-1,35.5
		c-1,14.9-2.4,29.9-3.4,44.8c-0.8,12.4-1.3,24.9-1.2,37.4c0.1,10.5,0.7,20.9,2.2,31.3c1.5,10.8,3.9,21.3,7.7,31.6
		c6.3,17,16.2,31.4,30.2,42.9c11.3,9.3,24.1,16.2,37.7,21.5c17.4,6.7,35.4,10.4,53.9,12.3c14,1.4,28,1.5,42,0.8
		c16-0.8,31.8-3,47.3-7.1c15.9-4.1,31-10,44.9-18.8c15.3-9.6,27.9-22,36.8-37.8c6.4-11.2,10.9-23.2,14.3-35.7
		c5.5-20.3,7.6-41,8.1-62c0.3-10.5,0.1-21-0.3-31.5c-0.5-12.9-1.2-25.7-2.1-38.5c-1.1-15.7-2-31.4-2.2-47.2
		C378.3,251.9,378.4,242.9,378.4,233.9z M392.8,79.4c-0.4-10.1-4.6-19.1-12.4-26.2c-12.8-11.6-29.3-12-44.1-2.7
		c-0.7,0.4-0.6,0.7-0.1,1.1c4.3,3.9,8.2,8.1,11.9,12.7c0.4,0.5,0.8,0.7,1.4,0.4c1.5-0.5,3-0.8,4.6-0.8c6.4-0.1,11.8,5.1,12.3,11.9
		c0.3,3.9-1.3,6.9-4.1,9.4c-0.5,0.4-0.6,0.7-0.4,1.4c2.9,7.3,5.5,14.8,7.6,22.4c0.2,0.7,0.4,0.9,1.1,0.6c2.8-1.2,5.5-2.5,8.1-4.2
		C387.6,99.3,392.6,91,392.8,79.4z M37.4,85.1c0,7.5,1.6,12.9,5,17.7c4.5,6.3,10.8,10.1,17.8,12.8c0.8,0.3,0.8-0.2,1-0.7
		c1.5-5.7,3.3-11.2,5.5-16.7c0.3-0.6,0.2-0.9-0.4-1.3c-1.9-1-3.6-2.2-5.2-3.6c-4.6-4.1-5.6-8.9-2.9-14.4c2-4,4.9-6.7,9.5-7
		c3.8-0.3,7.2,0.9,10.5,2.5c0.8,0.4,1.1,0.3,1.6-0.4c3.9-5.6,8.4-10.8,13.3-15.5c0.6-0.6,1.8-1.1,1.6-1.8c-0.1-0.7-1.4-1-2.1-1.4
		c-7.4-3.8-15.3-5.6-23.6-4.3c-8.7,1.4-15.9,5.5-21.7,11.9C41.1,69.7,37.6,77.5,37.4,85.1z M123.7,524.9c-0.2-0.6-0.7-0.7-1.2-0.9
		c-9.6-4.6-18.6-10.2-26.8-17.1c-0.7-0.6-1.3-0.7-2-0.1c-4.3,3.1-8.8,6.1-12.9,9.5c-3.4,2.8-6.5,5.9-8.7,9.8
		c-2.6,4.8-2.3,9.5,0.4,14.1c0.3,0.5,0.7,0.8,1.2,1.2c0.5,0.4,0.9,0.5,1.1-0.4c0.6-2.6,1.9-4.9,3.4-7.1c1.4-2.1,2.9-4.1,4-6.4
		c0.6-1.2,1.4-1.5,2.3-1.1c0.9,0.4,1,1.3,0.5,2.4c-0.9,2-2.2,3.7-3.4,5.5c-1.6,2.3-3.2,4.7-3.9,7.5c-0.1,0.5-0.4,1-0.1,1.5
		c1.3,2.2,2.8,4.1,5.4,4.7c3,0.7,5.6-0.4,8.1-1.8c4.3-2.3,8.1-5.4,11.8-8.6c4-3.4,7.9-6.8,12.4-9.4
		C118,526.8,120.7,525.7,123.7,524.9z M320.4,519.2c2.7,1.5,4.8,3.5,6.9,5.5c3.2,3.2,6,6.8,9.1,10.2c2.6,2.9,5.1,5.7,8.5,7.7
		c4.5,2.6,8.3,1.6,12-1.2c0.4-0.3,0.4-0.6,0.3-1c-1.1-2.7-2.1-5.4-3.2-8.1c-0.8-2-1.9-3.9-3.5-5.4c-1-1-1.1-1.8-0.4-2.5
		c0.7-0.7,1.5-0.6,2.5,0.4c2.2,2.2,3.6,4.9,4.7,7.7c0.8,2,1.5,3.9,2.3,5.9c0.2,0.5,0.3,0.8,0.9,0.3c3-2.4,4.5-5.5,4.2-9.4
		c-0.3-3.1-1.5-6-3.1-8.6c-4.4-7.3-10.4-13.1-17.3-18c-0.7-0.5-1-0.2-1.4,0.2c-4.8,4.4-10,8.5-15.5,12
		C325,516.4,322.7,517.7,320.4,519.2z M60.4,290.3c0-2,0-4,0-6c0-0.9-0.3-1.3-1.3-1.3c-2.5,0-5,0.1-7.4,0.5
		c-6.8,1-13.1,3.1-18.6,7.3c-3,2.3-5.4,5.2-6.5,8.8c-0.6,2.1-0.1,3.7,1.5,4.8c0.3,0.2,0.6,0.4,1,0.2c1.6-0.6,3.2-1.1,4.3-2.4
		c0.8-0.9,1.8-1.1,2.5-0.4c0.6,0.6,0.5,1.5-0.2,2.4c-1.3,1.5-3,2.3-4.7,2.9c-0.3,0.1-0.7,0.1-0.7,0.6c-0.3,3,2.3,6.2,5.3,6.6
		c1.1,0.1,2.2,0.1,3.3-0.1c4.4-0.8,8.2-2.8,11.9-5.2c2.1-1.4,4.2-2.6,6.6-3.3c1.4-0.4,2.1-1.3,2.3-2.7
		C60.2,298.8,60.4,294.6,60.4,290.3z M382.2,284.3c0.3,5,0.8,11.1,1,17.2c0.1,2,0.4,3.5,2.6,4.1c0.8,0.2,1.6,0.9,2.3,1.4
		c2,1.3,4.1,2.5,6.3,3.5c2.6,1.1,5.2,2,8.1,2c2.9-0.1,4.7-1.4,5.7-4.1c0.2-0.6,0.3-1.2,0.5-1.8c0.3-0.8,0-1.2-0.8-1.4
		c-1.9-0.6-3.6-1.5-4.8-3.2c-0.6-0.7-0.6-1.5,0.1-2.1c0.8-0.7,1.6-0.5,2.2,0.2c1.2,1.5,2.9,2,4.5,2.6c0.4,0.2,0.8,0,1.1-0.3
		c1.6-1.1,2.1-2.9,1.3-5.1c-1.4-3.9-4-6.9-7.4-9.2c-6.1-4.2-13-6.3-20.4-6.9C382.1,280.9,382.1,280.9,382.2,284.3z"/>
	<path class="st1" d="M228.7,17.7c-1.7,0-3.4,0-5.1,0c0-0.1-0.1-0.1-0.1-0.2c1.8,0,3.5,0,5.3,0C228.8,17.6,228.7,17.6,228.7,17.7z"
		/>
	<path class="st2" d="M223.5,17.5c0,0.1,0.1,0.1,0.1,0.2c-1.4,0-2.8,0.3-4.2-0.2C220.8,17.5,222.1,17.5,223.5,17.5z"/>
	<path class="st3" d="M378.4,233.9c0,9-0.1,17.9,0,26.9c0.2,15.7,1.1,31.5,2.2,47.2c0.9,12.8,1.6,25.7,2.1,38.5
		c0.4,10.5,0.6,21,0.3,31.5c-0.5,20.9-2.6,41.7-8.1,62c-3.4,12.4-7.9,24.5-14.3,35.7c-9,15.8-21.5,28.2-36.8,37.8
		c-13.9,8.8-29,14.7-44.9,18.8c-15.5,4-31.3,6.2-47.3,7.1c-14,0.7-28,0.6-42-0.8c-18.5-1.8-36.5-5.6-53.9-12.3
		c-13.7-5.2-26.4-12.1-37.7-21.5C84,493.3,74,478.9,67.7,462c-3.8-10.2-6.2-20.8-7.7-31.6c-1.4-10.4-2.1-20.8-2.2-31.3
		c-0.1-12.5,0.4-24.9,1.2-37.4c1-15,2.3-29.9,3.4-44.8c0.8-11.8,1.3-23.6,1-35.5c-0.3-11.9-1.1-23.9-2-35.8
		c-1.2-15.5-2.7-30.9-3.6-46.4c-0.6-10.1-0.9-20.1-0.7-30.2c0.3-13.1,1.3-26.1,3.8-39C63.9,114,68.7,98.3,77,84
		c10.4-18.1,25.1-31.6,43.5-41.3c13-6.9,26.9-11.5,41.2-14.8c13.3-3.1,26.8-5,40.3-6.3c5.6-0.5,11.1-1.1,16.7-1
		c13,0.2,26,0.7,38.9,2.3c15.8,1.9,31.3,5.3,46.1,11.6c24.1,10.3,42,27.3,54,50.5c2.9,5.5,4.7,11.5,6.6,17.5
		c4.6,14.5,7.7,29.4,9.7,44.5c1.6,12.2,2.6,24.5,3.2,36.8c0.4,8.4,0.7,16.8,0.7,25.3c0,8.4,0,16.7,0,25.1
		C378.1,233.9,378.2,233.9,378.4,233.9z M191.3,179.2c-1.3,7.4-0.6,14.6,2.5,21.6c0.8,1.8,1.9,3.4,3.3,4.8c3.6,3.5,8.2,3.7,12.7,0.7
		c2.1-1.4,3.8-3.2,5.5-5.1c0.1,0,0.2,0,0.2,0.1c0.2,0.3,0.4,0.5,0.5,0.8c1.9,3,4.5,5.1,7.9,6.4c1.9,0.7,3.7,1.2,5.6,0
		c0.5-0.3,1.2-0.4,1.8-0.7c1.7-0.6,3.3-1.3,4.7-2.5c1.3-1.2,2.3-2.5,2.6-4.4c0.4-3.1,0.5-6.3,0.4-9.5c-0.2-4.1-0.5-8.2-0.7-12.3
		c2.8,0.8,5.6,1.4,8.5,0.8c11.1-2.1,16.2-14.8,9.6-23.9c-4.5-6.1-10.8-10.1-17.6-13.2c0-1.2,0.4-2.4,0.1-3.7
		c-0.8-4.6-3.5-7.8-7.5-9.7c-9.7-4.6-19.3-4.1-28.7,1c-4.9,2.7-7.6,7.1-7.9,12.9c-9.6,2.1-16.3,9.5-17.4,19.2
		C176.3,171.3,182.4,178.7,191.3,179.2z M273,141.2c10.6,0,20.5-2.4,29.7-7.6c10.1-5.7,17.6-13.9,21.2-25.1c2.9-8.9,2.6-18,0.3-27
		c-4.5-17.2-15.1-28.7-32.3-33.6c-14.6-4.1-28.8-2.2-42.3,4.7c-11.3,5.8-19.6,14.6-24.1,26.6c-2.8,7.4-4,15.1-2.5,22.9
		c2.5,12.6,8.8,22.9,19.6,30.1C251.8,138.6,262.1,141.1,273,141.2z M152.6,51.2c-8.7,0-16.2,1.4-23.4,4.2
		c-10.3,4.1-18.7,10.5-24.5,20.1c-6.5,10.9-7.8,22.6-5,34.7c3.8,16.2,13.7,27.4,29.5,32.9c16.2,5.7,32,4,47.1-3.9
		c11.2-5.9,19.1-14.7,22.9-26.9c2.4-7.6,2.5-15.3,1.1-23c-2-11.5-7.3-21-16.7-28.1C174,54.2,163.2,51.4,152.6,51.2z"/>
	<path class="st3" d="M392.8,79.4c-0.2,11.6-5.2,19.9-14.2,25.9c-2.5,1.7-5.3,3-8.1,4.2c-0.7,0.3-0.9,0.1-1.1-0.6
		c-2.1-7.6-4.6-15.1-7.6-22.4c-0.3-0.7-0.1-1,0.4-1.4c2.8-2.5,4.4-5.5,4.1-9.4c-0.5-6.7-5.9-12-12.3-11.9c-1.6,0-3.1,0.3-4.6,0.8
		c-0.6,0.2-1,0.1-1.4-0.4c-3.6-4.5-7.5-8.8-11.9-12.7c-0.5-0.4-0.6-0.7,0.1-1.1c14.8-9.3,31.4-8.9,44.1,2.7
		C388.2,60.3,392.4,69.3,392.8,79.4z"/>
	<path class="st3" d="M37.4,85.1c0.2-7.6,3.7-15.4,9.8-22.2c5.9-6.4,13.1-10.5,21.7-11.9c8.4-1.3,16.2,0.5,23.6,4.3
		c0.8,0.4,2,0.6,2.1,1.4c0.1,0.7-1,1.2-1.6,1.8c-4.9,4.8-9.4,9.9-13.3,15.5c-0.5,0.7-0.8,0.8-1.6,0.4c-3.3-1.6-6.7-2.8-10.5-2.5
		c-4.7,0.3-7.6,3-9.5,7c-2.7,5.5-1.7,10.3,2.9,14.4c1.6,1.4,3.3,2.6,5.2,3.6c0.7,0.3,0.7,0.7,0.4,1.3c-2.2,5.4-4,11-5.5,16.7
		c-0.1,0.5-0.1,1-1,0.7c-7-2.7-13.3-6.5-17.8-12.8C39,98,37.3,92.6,37.4,85.1z"/>
	<path class="st1" d="M123.7,524.9c-2.9,0.8-5.7,2-8.4,3.5c-4.5,2.6-8.4,6-12.4,9.4c-3.7,3.2-7.5,6.3-11.8,8.6
		c-2.5,1.4-5.1,2.5-8.1,1.8c-2.6-0.6-4.2-2.5-5.4-4.7c-0.3-0.5,0-1,0.1-1.5c0.7-2.8,2.3-5.2,3.9-7.5c1.2-1.8,2.4-3.6,3.4-5.5
		c0.5-1.1,0.4-1.9-0.5-2.4c-0.9-0.5-1.7-0.1-2.3,1.1c-1.1,2.3-2.6,4.3-4,6.4c-1.5,2.2-2.8,4.5-3.4,7.1c-0.2,0.8-0.5,0.8-1.1,0.4
		c-0.4-0.3-0.9-0.7-1.2-1.2c-2.8-4.6-3-9.3-0.4-14.1c2.1-3.9,5.3-7,8.7-9.8c4.1-3.5,8.6-6.4,12.9-9.5c0.7-0.5,1.3-0.4,2,0.1
		c8.2,6.9,17.2,12.4,26.8,17.1C122.9,524.2,123.5,524.2,123.7,524.9z"/>
	<path class="st1" d="M320.4,519.2c2.4-1.5,4.6-2.8,6.8-4.3c5.5-3.6,10.7-7.6,15.5-12c0.4-0.4,0.7-0.7,1.4-0.2
		c6.9,5,12.9,10.7,17.3,18c1.6,2.7,2.8,5.5,3.1,8.6c0.4,3.9-1.2,7-4.2,9.4c-0.6,0.5-0.7,0.1-0.9-0.3c-0.7-2-1.5-4-2.3-5.9
		c-1.1-2.8-2.5-5.5-4.7-7.7c-1-1-1.8-1.1-2.5-0.4c-0.7,0.7-0.6,1.5,0.4,2.5c1.5,1.6,2.6,3.4,3.5,5.4c1.1,2.7,2.1,5.4,3.2,8.1
		c0.2,0.5,0.1,0.7-0.3,1c-3.7,2.9-7.5,3.9-12,1.2c-3.4-2-5.9-4.8-8.5-7.7c-3-3.4-5.8-7-9.1-10.2C325.2,522.7,323,520.7,320.4,519.2z
		"/>
	<path class="st1" d="M60.4,290.3c0,4.3-0.2,8.5-0.8,12.8c-0.2,1.4-0.9,2.3-2.3,2.7c-2.4,0.7-4.5,1.9-6.6,3.3
		c-3.6,2.4-7.5,4.4-11.9,5.2c-1.1,0.2-2.2,0.2-3.3,0.1c-3-0.3-5.6-3.6-5.3-6.6c0-0.5,0.4-0.5,0.7-0.6c1.8-0.7,3.5-1.5,4.7-2.9
		c0.8-0.9,0.9-1.8,0.2-2.4c-0.7-0.7-1.7-0.5-2.5,0.4c-1.2,1.3-2.8,1.8-4.3,2.4c-0.4,0.2-0.7,0-1-0.2c-1.6-1-2.1-2.7-1.5-4.8
		c1.2-3.7,3.5-6.5,6.5-8.8c5.5-4.2,11.8-6.4,18.6-7.3c2.5-0.3,4.9-0.4,7.4-0.5c1,0,1.3,0.4,1.3,1.3
		C60.4,286.3,60.4,288.3,60.4,290.3z"/>
	<path class="st1" d="M382.2,284.3c-0.1-3.4-0.1-3.3,2.2-3.1c7.4,0.6,14.3,2.7,20.4,6.9c3.4,2.3,6,5.3,7.4,9.2
		c0.8,2.3,0.4,4-1.3,5.1c-0.3,0.2-0.7,0.4-1.1,0.3c-1.6-0.6-3.3-1.1-4.5-2.6c-0.6-0.8-1.4-0.9-2.2-0.2c-0.7,0.6-0.7,1.4-0.1,2.1
		c1.2,1.6,3,2.5,4.8,3.2c0.8,0.3,1.1,0.6,0.8,1.4c-0.2,0.6-0.3,1.2-0.5,1.8c-0.9,2.7-2.8,4.1-5.7,4.1c-2.9,0.1-5.5-0.9-8.1-2
		c-2.2-0.9-4.3-2.1-6.3-3.5c-0.8-0.5-1.5-1.2-2.3-1.4c-2.2-0.6-2.5-2.1-2.6-4.1C382.9,295.4,382.5,289.3,382.2,284.3z"/>
	<path class="st4" d="M194.7,143.2c0.2-5.7,2.9-10.1,7.9-12.9c9.3-5.1,19-5.6,28.7-1c4,1.9,6.7,5.2,7.5,9.7c0.2,1.2-0.1,2.5-0.1,3.7
		c-0.5,0.8-1.1,1.6-1.2,2.6c-0.3,0-0.4,0.2-0.6,0.4c-1.8,2.2-4.1,3.7-6.7,4.7c-7.4,3.1-15.1,3.8-23,2.5c-3.6-0.6-7-1.7-9.8-4.1
		c-0.9-0.8-1.4-1.9-2.2-2.7C195,145.2,194.8,144.2,194.7,143.2z"/>
	<path class="st0" d="M273,141.2c-10.9,0-21.2-2.6-30.4-8.8c-10.8-7.3-17.1-17.5-19.6-30.1c-1.5-7.8-0.2-15.5,2.5-22.9
		c4.5-12.1,12.8-20.8,24.1-26.6c13.5-6.9,27.7-8.9,42.3-4.7c17.2,4.9,27.8,16.4,32.3,33.6c2.3,9,2.6,18-0.3,27
		c-3.6,11.2-11.1,19.4-21.2,25.1C293.6,138.8,283.6,141.1,273,141.2z M276.3,48.7c-7.9,0.2-15.3,1.8-22.4,5
		c-12.6,5.8-21.8,14.8-26.3,28.2c-2.1,6.5-3.2,13.2-1.7,19.9c3.1,14.5,11,25.4,24.6,31.5c17.5,7.8,34.9,6.5,51.5-2.9
		c9.6-5.4,16.3-13.4,19.4-24.1c2.4-8.2,2-16.4-0.1-24.5c-3.1-12-9.7-21.5-20.8-27.5C293,50.3,284.8,48.7,276.3,48.7z"/>
	<path class="st0" d="M152.6,51.2c10.7,0.1,21.5,3,30.9,10.1c9.4,7.1,14.7,16.7,16.7,28.1c1.4,7.7,1.3,15.4-1.1,23
		c-3.8,12.2-11.7,21.1-22.9,26.9c-15.1,7.9-30.9,9.5-47.1,3.9c-15.7-5.5-25.7-16.7-29.5-32.9c-2.8-12.1-1.5-23.9,5-34.7
		c5.7-9.6,14.2-16,24.5-20.1C136.3,52.6,143.8,51.3,152.6,51.2z M151.6,54c-2.5,0-5,0.2-7.4,0.5c-2.1,0.3-4.3,0.7-6.4,1.2
		c-9.8,2.4-18.6,6.9-25.5,14.4c-10.5,11.5-13.2,25.2-9.8,39.9c3.5,15.2,13.1,25.6,27.9,30.6c16.1,5.4,31.6,3.5,46.3-4.8
		c8.4-4.8,14.7-11.6,18.4-20.6c3.5-8.3,3.9-17,2.2-25.8c-2.4-12.7-9-22.5-20.4-29C169.1,56,160.6,54.2,151.6,54z"/>
	<path class="st2" d="M237.4,145.4c0.1-1,0.7-1.8,1.2-2.6c6.8,3.1,13.1,7.1,17.6,13.2c6.7,9,1.5,21.8-9.6,23.9
		c-2.9,0.5-5.7,0-8.5-0.8c-1-0.3-1.9-1-3.1-1c-0.2-0.1-0.3-0.3-0.5-0.4c-2.4-1-4.7-2-7.2-2.9c-2.9-1.1-6-1.9-9.2-1.7
		c-1.3-0.6-2.6,0-3.8,0.2c-0.4,0-0.8,0.1-1.2,0.2c-4.1,0.9-8,2.5-11.9,3.8c-2.3,0.7-4.6,1.2-6.9,1.8c-1,0-2.1-0.2-3.1,0.2
		c-8.8-0.6-15-7.9-14-16.8c1.1-9.7,7.8-17.1,17.4-19.2c0.2,1,0.3,1.9,0.5,2.9c-3.4,0.8-6.4,2.2-8.9,4.7c-4.4,4.3-7,9.4-5.7,15.7
		c1.2,6.1,5.4,10.7,13.2,9.4c4.5-0.7,8.7-2.2,13-3.8c7.9-3,15.6-2.9,23.3,0.4c2.8,1.2,5.5,2.3,8.3,3.3c2.3,0.8,4.7,1.4,7.2,1.2
		c3.7-0.4,6.2-2.6,8.3-5.3c3.3-4.3,3.4-8.6,0.5-13.1c-2-3.1-4.7-5.5-7.7-7.7C243.8,148.8,240.6,147.1,237.4,145.4z"/>
	<path class="st0" d="M191.3,179.2c1-0.4,2.1-0.1,3.1-0.2c-0.9,4.4-0.9,8.8-0.1,13.2c0.7,3.9,1.9,7.7,4.6,10.8
		c2.2,2.5,4.9,3,7.9,1.5c2.3-1.1,4-2.9,5.8-4.8c0.9-1,1.4-2,1.1-3.4c-0.2-1.1-0.2-2.3-0.2-3.5c-0.2-6.6,0.5-13.1,1-19.6
		c1.3-0.3,2.5-0.8,3.8-0.2c-0.1,1.9-0.2,3.7-0.4,5.6c-0.5,6.4-1,12.7-0.4,19.1c0.1,0.7,0.2,1.3,0.6,1.9c1.7,3.1,4.3,5.1,7.6,6.2
		c0.4,0.1,0.9,0.4,1.3,0.2c2.4-1,5-1.5,7-3.2c0.9-0.7,1.4-1.6,1.6-2.8c0.5-3.7,0.4-7.4,0.2-11.1c-0.2-3.6-0.5-7.2-0.7-10.9
		c1.1,0,2,0.6,3.1,1c0.2,4.1,0.5,8.2,0.7,12.3c0.1,3.2,0,6.3-0.4,9.5c-0.2,1.9-1.3,3.2-2.6,4.4c-1.4,1.2-3,1.9-4.7,2.5
		c-0.6,0.2-1.3,0.3-1.8,0.7c-1.9,1.2-3.7,0.7-5.6,0c-3.3-1.2-5.9-3.4-7.9-6.4c-0.2-0.3-0.4-0.5-0.5-0.8c0,0-0.1,0-0.2-0.1
		c-1.6,1.9-3.4,3.7-5.5,5.1c-4.5,3-9.1,2.8-12.7-0.7c-1.4-1.4-2.5-3-3.3-4.8C190.6,193.9,190,186.7,191.3,179.2z"/>
	<path class="st1" d="M237.4,145.4c3.2,1.7,6.3,3.4,9.2,5.5c2.9,2.2,5.7,4.6,7.7,7.7c2.9,4.5,2.8,8.8-0.5,13.1
		c-2.1,2.8-4.7,4.9-8.3,5.3c-2.5,0.3-4.9-0.3-7.2-1.2c-2.8-1-5.6-2.2-8.3-3.3c-7.7-3.3-15.5-3.4-23.3-0.4c-4.2,1.6-8.5,3.1-13,3.8
		c-7.8,1.2-11.9-3.3-13.2-9.4c-1.3-6.3,1.3-11.4,5.7-15.7c2.5-2.4,5.5-3.9,8.9-4.7c0.8,0.8,1.3,1.9,2.2,2.7c2.8,2.5,6.2,3.6,9.8,4.1
		c7.9,1.3,15.6,0.6,23-2.5c2.6-1.1,4.9-2.5,6.7-4.7C237,145.6,237.1,145.4,237.4,145.4z"/>
	<path class="st5" d="M276.3,48.7c8.5-0.1,16.6,1.6,24.2,5.7c11.1,6,17.7,15.5,20.8,27.5c2.1,8.1,2.5,16.3,0.1,24.5
		c-3.1,10.7-9.8,18.7-19.4,24.1c-16.6,9.3-34,10.6-51.5,2.9c-13.6-6-21.6-17-24.6-31.5c-1.4-6.8-0.4-13.5,1.7-19.9
		c4.4-13.4,13.7-22.4,26.3-28.2C261,50.5,268.5,48.9,276.3,48.7z M264.1,97.3c0-3.4-0.8-6.5-2.7-9.3c-4.8-7.5-14.6-9.1-21-3.3
		c-6.6,5.9-7.4,16.3-1.9,23.2c5.2,6.6,14.2,7.4,20.4,1.7C262.4,106.3,264,102.1,264.1,97.3z"/>
	<path class="st5" d="M151.6,54c8.9,0.1,17.5,1.9,25.4,6.4c11.3,6.5,17.9,16.3,20.4,29c1.7,8.8,1.3,17.4-2.2,25.8
		c-3.7,9-10,15.8-18.4,20.6c-14.7,8.4-30.2,10.3-46.3,4.8c-14.8-5-24.4-15.5-27.9-30.6c-3.4-14.7-0.7-28.5,9.8-39.9
		c6.9-7.5,15.7-12,25.5-14.4c2.1-0.5,4.2-0.9,6.4-1.2C146.6,54.2,149.1,54.1,151.6,54z M140.1,101.5c0-2.9-0.6-5.4-1.7-7.8
		c-4.3-8.9-15.4-11.3-22.5-4.9c-6.8,6.1-7.3,17-1.2,23.8c5.3,5.9,14.2,6.4,20,1.2C138.3,110.5,140,106.3,140.1,101.5z"/>
	<path class="st5" d="M235.1,178.1c0.2,3.6,0.4,7.2,0.7,10.9c0.2,3.7,0.2,7.4-0.2,11.1c-0.2,1.2-0.7,2.1-1.6,2.8
		c-2,1.7-4.7,2.2-7,3.2c-0.3,0.1-0.9-0.1-1.3-0.2c-3.3-1.1-5.9-3.1-7.6-6.2c-0.3-0.6-0.5-1.2-0.6-1.9c-0.6-6.4-0.1-12.8,0.4-19.1
		c0.1-1.9,0.2-3.7,0.4-5.6c3.2-0.2,6.2,0.7,9.2,1.7c2.4,0.9,4.8,1.9,7.2,2.9C234.7,177.7,234.9,177.9,235.1,178.1z"/>
	<path class="st5" d="M214.4,173.3c-0.5,6.5-1.2,13-1,19.6c0,1.2,0,2.3,0.2,3.5c0.3,1.4-0.2,2.4-1.1,3.4c-1.7,1.8-3.5,3.6-5.8,4.8
		c-3,1.5-5.7,1-7.9-1.5c-2.7-3.1-3.9-6.8-4.6-10.8c-0.8-4.4-0.7-8.8,0.1-13.2c2.3-0.6,4.6-1.1,6.9-1.8c4-1.3,7.9-2.9,11.9-3.8
		C213.6,173.4,214,173.3,214.4,173.3z"/>
	<path class="st4" d="M264.1,97.3c-0.1,4.8-1.6,9-5.2,12.3c-6.2,5.7-15.2,4.9-20.4-1.7c-5.5-6.9-4.6-17.3,1.9-23.2
		c6.4-5.8,16.2-4.2,21,3.3C263.2,90.8,264.1,94,264.1,97.3z M259.5,100.9c0-2.8-2.1-4.7-4.4-4c-1.5,0.5-2.5,2.1-2.5,4
		c0,1.9,1,3.5,2.5,4C257.5,105.6,259.5,103.7,259.5,100.9z"/>
	<path class="st4" d="M140.1,101.5c-0.1,4.7-1.8,8.9-5.5,12.3c-5.8,5.2-14.7,4.7-20-1.2c-6.1-6.8-5.6-17.6,1.2-23.8
		c7.1-6.4,18.2-4,22.5,4.9C139.5,96.1,140.1,98.7,140.1,101.5z M135.5,104.9c0-2.2-1.3-3.9-3.2-4.1c-1.7-0.2-3.3,1.1-3.7,3.1
		c-0.3,1.6,0,3,1.2,4.2c0.9,0.9,2.4,1.2,3.5,0.7C134.8,108,135.4,106.6,135.5,104.9z"/>
	<path class="st5" d="M259.5,100.9c0,2.8-2.1,4.7-4.4,4c-1.5-0.5-2.5-2.1-2.5-4c0-1.9,1-3.5,2.5-4
		C257.4,96.2,259.5,98.1,259.5,100.9z"/>
	<path class="st5" d="M135.5,104.9c0,1.7-0.6,3-2.2,3.8c-1.2,0.6-2.6,0.3-3.5-0.7c-1.2-1.2-1.5-2.6-1.2-4.2c0.4-2,2-3.3,3.7-3.1
		C134.1,101,135.5,102.7,135.5,104.9z"/>
</g>
<g>
	<path d="M134.6,235.3c3.1-7.9,8.5-10.3,16.9-8.2c14.1,3.6,28.5,6.3,43.2,9.4c0.9,9.5,1.8,18.5,2.4,27.5c0.1,1.7-0.5,4.1-1.7,5.1
		c-10.2,8.4-20.5,16.7-31,24.6c-2.3,1.7-5.6,2.5-8.5,2.9c-10.5,1.5-15.8-3.9-14-14.3c2.2-13.2,0.5-25.6-6.4-37.2
		C135.2,241.9,134.9,238.6,134.6,235.3z"/>
	<path d="M240.8,232.3c14.4-5.9,28.3-11.7,42.4-17.2c10.5-4.1,18.3,2.5,16.8,13.9c-0.9,6.8-2.6,13.6-2.4,20.4
		c0.2,6.5,1.9,13,3.7,19.3c2.6,9.1-0.5,15-9.9,15.6c-4.8,0.3-10.2-0.4-14.4-2.5c-10.4-5-20.4-10.9-30.3-16.8c-1.7-1-3.1-3.8-3.4-5.9
		C242.2,250.7,241.6,242.1,240.8,232.3z"/>
	<path d="M239.3,248.1c1.5,16.4-2.9,21.3-19.6,22c-1.4,0.1-2.8-0.1-4.1-0.2c-14.3-0.8-15.1-1.5-16.4-15.7
		c-1.9-20.4,0.1-22.7,21.1-23.6c1.9-0.1,3.9-0.2,5.8,0C237.7,231.2,237.8,231.3,239.3,248.1z"/>
	<path d="M292.3,289.7c-2.3,7-5.7,9-12.5,4.8c-8.2-5.1-15.7-11.3-22.8-17.9C268.7,281,280.5,285.3,292.3,289.7z"/>
	<path d="M187.5,283.8c-6.6,7-12.9,14.3-19.9,20.8c-6,5.5-9.7,4.2-13.1-2.4c10.8-6.4,21.4-12.8,32.1-19.2
		C186.9,283.2,187.2,283.5,187.5,283.8z"/>
</g>
</svg>
